<?xml version="1.0" encoding="utf-8"?>
<!-- Generator: Adobe Illustrator 22.1.0, SVG Export Plug-In . SVG Version: 6.00 Build 0)  -->
<svg version="1.1" id="Layer_1" xmlns="http://www.w3.org/2000/svg" xmlns:xlink="http://www.w3.org/1999/xlink" x="0px" y="0px"
	 viewBox="0 0 209.3 65" style="enable-background:new 0 0 209.3 65;" xml:space="preserve">
<style type="text/css">
	.st0{fill:#FFFFFF;}
	.st1{fill:#E01E26;}
</style>
<g>
	<ellipse class="st0" cx="173.1" cy="32.3" rx="31.4" ry="30.3"/>
</g>
<g>
	<path class="st0" d="M38.5,10.4h11.2L35.9,47c-1.3,3.3-3.8,6.2-7.6,6.2s-6.3-2.8-7.6-6.1L6.1,10.4h11.4l10.7,27.1L38.5,10.4z"/>
</g>
<g>
	<path class="st0" d="M122.5,41.9h6.6v10.6h-6.6c-6.4,0-12.4-5-14.4-10.9l-4.8-13.7h13.1c1.8,0,2.9-1.9,2.9-3.5s-1.1-3.5-2.9-3.5
		h-15.9v31.5H89.8v-42h26.5c7.6,0,13.4,6.5,13.4,14c0,6.8-4.8,12.9-11.6,13.8C119,40.3,120.1,41.9,122.5,41.9z"/>
</g>
<g>
	<path class="st0" d="M86.9,10.4V21H67c-5.6,0-9.4,5.2-9.4,10.5s3.9,10.4,9.4,10.4h9.5v-5.2h-9.8V26.1H87v26.3H67
		c-11.4,0-20-9.9-20-21c0-11.2,8.6-21.1,20-21.1L86.9,10.4L86.9,10.4z"/>
</g>
<g>
	<g>
		<path class="st1" d="M193.2,28.6L193.2,28.6l-30.5-13.7V15c-5.5-1.8-11.7,0.8-14.1,6.2c-2.6,5.8,0,12.6,5.8,15.2
			c4.4,2,9.5,0.9,12.7-2.3L176,38c-0.2,4.6,2.4,9,6.8,11c5.8,2.6,12.6,0,15.2-5.8C200.4,37.8,198.3,31.5,193.2,28.6z"/>
		<polygon class="st0" points="164.2,25.3 161.8,24.2 162.9,21.8 159,20 157.9,22.5 155.5,21.4 153.7,25.2 156.2,26.3 155.1,28.8 
			159,30.5 160,28.1 162.5,29.1 		"/>
		<g>
			<path class="st0" d="M192.1,35.8c-0.6,1.4-2.2,2-3.6,1.4c-1.4-0.6-2-2.2-1.4-3.6c0.6-1.4,2.2-2,3.6-1.4
				C192.1,32.8,192.7,34.4,192.1,35.8z"/>
			<path class="st0" d="M188.2,44.5c-0.6,1.4-2.2,2-3.6,1.4c-1.4-0.6-2-2.2-1.4-3.6c0.6-1.4,2.2-2,3.6-1.4
				C188.2,41.6,188.8,43.2,188.2,44.5z"/>
		</g>
		<g>
			<path class="st0" d="M191,43.5c-1.4-0.6-2-2.2-1.4-3.6c0.6-1.4,2.2-2,3.6-1.4c1.4,0.6,2,2.2,1.4,3.6
				C193.9,43.5,192.3,44.1,191,43.5z"/>
			<path class="st0" d="M182.2,39.6c-1.4-0.6-2-2.2-1.4-3.6c0.6-1.4,2.2-2,3.6-1.4c1.4,0.6,2,2.2,1.4,3.6
				C185.2,39.6,183.6,40.2,182.2,39.6z"/>
		</g>
	</g>
	<g>
		<path class="st0" d="M172.4,30.8c-0.2,0.5-0.8,0.7-1.3,0.5l-2.5-1.1c-0.5-0.2-0.7-0.8-0.5-1.3l0,0c0.2-0.5,0.8-0.7,1.3-0.5
			l2.5,1.1C172.4,29.7,172.6,30.3,172.4,30.8L172.4,30.8z"/>
		<path class="st0" d="M179.3,33.9c-0.2,0.5-0.8,0.7-1.3,0.5l-2.5-1.1c-0.5-0.2-0.7-0.8-0.5-1.3l0,0c0.2-0.5,0.8-0.7,1.3-0.5
			l2.5,1.1C179.3,32.8,179.5,33.4,179.3,33.9L179.3,33.9z"/>
	</g>
	<path class="st1" d="M182.3,23.2c-0.4,1-1.6,1.4-2.6,1l-4.7-2.1c-1-0.4-1.4-1.6-1-2.6l0,0c0.4-1,1.6-1.4,2.6-1l4.7,2.1
		C182.3,21,182.8,22.2,182.3,23.2L182.3,23.2z"/>
</g>
<g>
	<g>
		<path class="st1" d="M193.2,28.6L193.2,28.6l-30.5-13.7V15c-5.5-1.8-11.7,0.8-14.1,6.2c-2.6,5.8,0,12.6,5.8,15.2
			c4.4,2,9.5,0.9,12.7-2.3L176,38c-0.2,4.6,2.4,9,6.8,11c5.8,2.6,12.6,0,15.2-5.8C200.4,37.8,198.3,31.5,193.2,28.6z"/>
		<g>
			<polygon class="st0" points="164.2,25.3 161.8,24.2 162.9,21.8 159,20 157.9,22.5 155.5,21.4 153.7,25.2 156.2,26.3 155.1,28.8 
				159,30.5 160,28.1 162.5,29.1 			"/>
		</g>
		<g>
			<g>
				<g>
					<path class="st0" d="M192.1,35.8c-0.6,1.4-2.2,2-3.6,1.4c-1.4-0.6-2-2.2-1.4-3.6c0.6-1.4,2.2-2,3.6-1.4
						C192.1,32.8,192.7,34.4,192.1,35.8z"/>
				</g>
				<g>
					<path class="st0" d="M188.2,44.5c-0.6,1.4-2.2,2-3.6,1.4c-1.4-0.6-2-2.2-1.4-3.6c0.6-1.4,2.2-2,3.6-1.4
						C188.2,41.6,188.8,43.2,188.2,44.5z"/>
				</g>
			</g>
		</g>
		<g>
			<g>
				<g>
					<path class="st0" d="M191,43.5c-1.4-0.6-2-2.2-1.4-3.6c0.6-1.4,2.2-2,3.6-1.4c1.4,0.6,2,2.2,1.4,3.6
						C193.9,43.5,192.3,44.1,191,43.5z"/>
				</g>
				<g>
					<path class="st0" d="M182.2,39.6c-1.4-0.6-2-2.2-1.4-3.6c0.6-1.4,2.2-2,3.6-1.4c1.4,0.6,2,2.2,1.4,3.6
						C185.2,39.6,183.6,40.2,182.2,39.6z"/>
				</g>
			</g>
		</g>
	</g>
	<g>
		<path class="st1" d="M172.4,30.8c-0.2,0.5-0.8,0.7-1.3,0.5l-2.5-1.1c-0.5-0.2-0.7-0.8-0.5-1.3l0,0c0.2-0.5,0.8-0.7,1.3-0.5
			l2.5,1.1C172.4,29.7,172.6,30.3,172.4,30.8L172.4,30.8z"/>
		<path class="st1" d="M179.3,33.9c-0.2,0.5-0.8,0.7-1.3,0.5l-2.5-1.1c-0.5-0.2-0.7-0.8-0.5-1.3l0,0c0.2-0.5,0.8-0.7,1.3-0.5
			l2.5,1.1C179.3,32.8,179.5,33.4,179.3,33.9L179.3,33.9z"/>
	</g>
	<path class="st1" d="M182.3,23.2c-0.4,1-1.6,1.4-2.6,1l-4.7-2.1c-1-0.4-1.4-1.6-1-2.6l0,0c0.4-1,1.6-1.4,2.6-1l4.7,2.1
		C182.3,21,182.8,22.2,182.3,23.2L182.3,23.2z"/>
</g>
<path class="st1" d="M156.6,42.6c2.4,2.2,7.8,8.4,13.1,8.6c5.2,0.3,11.8,3.1,3,3s-15.1-5-16.1-8.4S156.6,42.6,156.6,42.6z"/>
</svg>
